<svg id="visual" viewBox="0 0 900 600" width="900" height="600" xmlns="http://www.w3.org/2000/svg" xmlns:xlink="http://www.w3.org/1999/xlink" version="1.1"><rect x="0" y="0" width="900" height="600" fill="#ffffff"></rect><defs><linearGradient id="grad1_0" x1="33.3%" y1="100%" x2="100%" y2="0%"><stop offset="20%" stop-color="#1e83dc" stop-opacity="1"></stop><stop offset="80%" stop-color="#1e83dc" stop-opacity="1"></stop></linearGradient></defs><defs><linearGradient id="grad1_1" x1="33.3%" y1="100%" x2="100%" y2="0%"><stop offset="20%" stop-color="#1e83dc" stop-opacity="1"></stop><stop offset="80%" stop-color="#84aae8" stop-opacity="1"></stop></linearGradient></defs><defs><linearGradient id="grad1_2" x1="33.3%" y1="100%" x2="100%" y2="0%"><stop offset="20%" stop-color="#c4d4f4" stop-opacity="1"></stop><stop offset="80%" stop-color="#84aae8" stop-opacity="1"></stop></linearGradient></defs><defs><linearGradient id="grad1_3" x1="33.3%" y1="100%" x2="100%" y2="0%"><stop offset="20%" stop-color="#c4d4f4" stop-opacity="1"></stop><stop offset="80%" stop-color="#ffffff" stop-opacity="1"></stop></linearGradient></defs><defs><linearGradient id="grad2_0" x1="0%" y1="100%" x2="66.7%" y2="0%"><stop offset="20%" stop-color="#1e83dc" stop-opacity="1"></stop><stop offset="80%" stop-color="#1e83dc" stop-opacity="1"></stop></linearGradient></defs><defs><linearGradient id="grad2_1" x1="0%" y1="100%" x2="66.7%" y2="0%"><stop offset="20%" stop-color="#84aae8" stop-opacity="1"></stop><stop offset="80%" stop-color="#1e83dc" stop-opacity="1"></stop></linearGradient></defs><defs><linearGradient id="grad2_2" x1="0%" y1="100%" x2="66.7%" y2="0%"><stop offset="20%" stop-color="#84aae8" stop-opacity="1"></stop><stop offset="80%" stop-color="#c4d4f4" stop-opacity="1"></stop></linearGradient></defs><defs><linearGradient id="grad2_3" x1="0%" y1="100%" x2="66.7%" y2="0%"><stop offset="20%" stop-color="#ffffff" stop-opacity="1"></stop><stop offset="80%" stop-color="#c4d4f4" stop-opacity="1"></stop></linearGradient></defs><g transform="translate(900, 600)"><path d="M-405.6 0C-359.1 -22.7 -312.6 -45.4 -313 -83.9C-313.3 -122.3 -360.5 -176.6 -351.3 -202.8C-342.1 -229 -276.5 -227 -239 -239C-201.5 -251 -192.2 -276.9 -174 -301.4C-155.8 -325.9 -128.6 -348.9 -98.1 -366.1C-67.6 -383.2 -33.8 -394.4 0 -405.6L0 0Z" fill="#e2e9fa"></path><path d="M-304.2 0C-269.3 -17 -234.5 -34 -234.7 -62.9C-235 -91.8 -270.4 -132.5 -263.5 -152.1C-256.6 -171.7 -207.3 -170.3 -179.3 -179.3C-151.2 -188.2 -144.2 -207.7 -130.5 -226C-116.8 -244.4 -96.4 -261.7 -73.6 -274.6C-50.7 -287.4 -25.4 -295.8 0 -304.2L0 0Z" fill="#a5bfee"></path><path d="M-202.8 0C-179.6 -11.3 -156.3 -22.7 -156.5 -41.9C-156.7 -61.2 -180.2 -88.3 -175.6 -101.4C-171 -114.5 -138.2 -113.5 -119.5 -119.5C-100.8 -125.5 -96.1 -138.4 -87 -150.7C-77.9 -162.9 -64.3 -174.5 -49 -183C-33.8 -191.6 -16.9 -197.2 0 -202.8L0 0Z" fill="#5d96e2"></path><path d="M-101.4 0C-89.8 -5.7 -78.2 -11.3 -78.2 -21C-78.3 -30.6 -90.1 -44.2 -87.8 -50.7C-85.5 -57.2 -69.1 -56.8 -59.8 -59.8C-50.4 -62.7 -48.1 -69.2 -43.5 -75.3C-38.9 -81.5 -32.1 -87.2 -24.5 -91.5C-16.9 -95.8 -8.5 -98.6 0 -101.4L0 0Z" fill="#1e83dc"></path></g><g transform="translate(0, 0)"><path d="M405.6 0C390.9 32.3 376.3 64.7 366.1 98.1C355.9 131.5 350.2 166 332.6 192C314.9 218 285.2 235.3 263.8 263.8C242.3 292.2 229.2 331.6 202.8 351.3C176.5 371 136.9 370.9 100.9 376.7C64.9 382.5 32.5 394.1 0 405.6L0 0Z" fill="#e2e9fa"></path><path d="M304.2 0C293.2 24.2 282.2 48.5 274.6 73.6C266.9 98.6 262.7 124.5 249.4 144C236.2 163.5 213.9 176.5 197.8 197.8C181.7 219.1 171.9 248.7 152.1 263.5C132.3 278.2 102.7 278.2 75.7 282.5C48.7 286.9 24.4 295.5 0 304.2L0 0Z" fill="#a5bfee"></path><path d="M202.8 0C195.5 16.2 188.1 32.3 183 49C178 65.8 175.1 83 166.3 96C157.4 109 142.6 117.7 131.9 131.9C121.2 146.1 114.6 165.8 101.4 175.6C88.2 185.5 68.5 185.5 50.5 188.4C32.5 191.2 16.2 197 0 202.8L0 0Z" fill="#5d96e2"></path><path d="M101.4 0C97.7 8.1 94.1 16.2 91.5 24.5C89 32.9 87.6 41.5 83.1 48C78.7 54.5 71.3 58.8 65.9 65.9C60.6 73 57.3 82.9 50.7 87.8C44.1 92.7 34.2 92.7 25.2 94.2C16.2 95.6 8.1 98.5 0 101.4L0 0Z" fill="#1e83dc"></path></g></svg>