<svg id="visual" viewBox="0 0 900 600" width="900" height="600" xmlns="http://www.w3.org/2000/svg" xmlns:xlink="http://www.w3.org/1999/xlink" version="1.1"><rect x="0" y="0" width="900" height="600" fill="#1a1b1e"></rect><defs><linearGradient id="grad1_0" x1="33.3%" y1="100%" x2="100%" y2="0%"><stop offset="20%" stop-color="#1e83dc" stop-opacity="1"></stop><stop offset="80%" stop-color="#1e83dc" stop-opacity="1"></stop></linearGradient></defs><defs><linearGradient id="grad1_1" x1="33.3%" y1="100%" x2="100%" y2="0%"><stop offset="20%" stop-color="#1e83dc" stop-opacity="1"></stop><stop offset="80%" stop-color="#2d6cb2" stop-opacity="1"></stop></linearGradient></defs><defs><linearGradient id="grad1_2" x1="33.3%" y1="100%" x2="100%" y2="0%"><stop offset="20%" stop-color="#2f5689" stop-opacity="1"></stop><stop offset="80%" stop-color="#2d6cb2" stop-opacity="1"></stop></linearGradient></defs><defs><linearGradient id="grad1_3" x1="33.3%" y1="100%" x2="100%" y2="0%"><stop offset="20%" stop-color="#2f5689" stop-opacity="1"></stop><stop offset="80%" stop-color="#2c4163" stop-opacity="1"></stop></linearGradient></defs><defs><linearGradient id="grad1_4" x1="33.3%" y1="100%" x2="100%" y2="0%"><stop offset="20%" stop-color="#252d3f" stop-opacity="1"></stop><stop offset="80%" stop-color="#2c4163" stop-opacity="1"></stop></linearGradient></defs><defs><linearGradient id="grad1_5" x1="33.3%" y1="100%" x2="100%" y2="0%"><stop offset="20%" stop-color="#252d3f" stop-opacity="1"></stop><stop offset="80%" stop-color="#1a1b1e" stop-opacity="1"></stop></linearGradient></defs><defs><linearGradient id="grad2_0" x1="0%" y1="100%" x2="66.7%" y2="0%"><stop offset="20%" stop-color="#1e83dc" stop-opacity="1"></stop><stop offset="80%" stop-color="#1e83dc" stop-opacity="1"></stop></linearGradient></defs><defs><linearGradient id="grad2_1" x1="0%" y1="100%" x2="66.7%" y2="0%"><stop offset="20%" stop-color="#2d6cb2" stop-opacity="1"></stop><stop offset="80%" stop-color="#1e83dc" stop-opacity="1"></stop></linearGradient></defs><defs><linearGradient id="grad2_2" x1="0%" y1="100%" x2="66.7%" y2="0%"><stop offset="20%" stop-color="#2d6cb2" stop-opacity="1"></stop><stop offset="80%" stop-color="#2f5689" stop-opacity="1"></stop></linearGradient></defs><defs><linearGradient id="grad2_3" x1="0%" y1="100%" x2="66.7%" y2="0%"><stop offset="20%" stop-color="#2c4163" stop-opacity="1"></stop><stop offset="80%" stop-color="#2f5689" stop-opacity="1"></stop></linearGradient></defs><defs><linearGradient id="grad2_4" x1="0%" y1="100%" x2="66.7%" y2="0%"><stop offset="20%" stop-color="#2c4163" stop-opacity="1"></stop><stop offset="80%" stop-color="#252d3f" stop-opacity="1"></stop></linearGradient></defs><defs><linearGradient id="grad2_5" x1="0%" y1="100%" x2="66.7%" y2="0%"><stop offset="20%" stop-color="#1a1b1e" stop-opacity="1"></stop><stop offset="80%" stop-color="#252d3f" stop-opacity="1"></stop></linearGradient></defs><g transform="translate(900, 600)"><path d="M-216.3 0C-216.7 -31.1 -217 -62.2 -199.9 -82.8C-182.7 -103.4 -148.1 -113.5 -123.7 -123.7C-99.3 -134 -85.1 -144.4 -66.2 -159.8C-47.3 -175.3 -23.6 -195.8 0 -216.3L0 0Z" fill="#20242e"></path><path d="M-180.3 0C-180.6 -25.9 -180.8 -51.8 -166.6 -69C-152.3 -86.2 -123.5 -94.6 -103.1 -103.1C-82.8 -111.7 -70.9 -120.3 -55.2 -133.2C-39.4 -146.1 -19.7 -163.2 0 -180.3L0 0Z" fill="#293751"></path><path d="M-144.2 0C-144.4 -20.7 -144.7 -41.5 -133.2 -55.2C-121.8 -68.9 -98.8 -75.7 -82.5 -82.5C-66.2 -89.3 -56.8 -96.3 -44.1 -106.6C-31.5 -116.9 -15.8 -130.5 0 -144.2L0 0Z" fill="#2e4b76"></path><path d="M-108.2 0C-108.3 -15.5 -108.5 -31.1 -99.9 -41.4C-91.4 -51.7 -74.1 -56.7 -61.9 -61.9C-49.7 -67 -42.6 -72.2 -33.1 -79.9C-23.6 -87.6 -11.8 -97.9 0 -108.2L0 0Z" fill="#2f619d"></path><path d="M-72.1 0C-72.2 -10.4 -72.3 -20.7 -66.6 -27.6C-60.9 -34.5 -49.4 -37.8 -41.2 -41.2C-33.1 -44.7 -28.4 -48.1 -22.1 -53.3C-15.8 -58.4 -7.9 -65.3 0 -72.1L0 0Z" fill="#2877c7"></path><path d="M-36.1 0C-36.1 -5.2 -36.2 -10.4 -33.3 -13.8C-30.5 -17.2 -24.7 -18.9 -20.6 -20.6C-16.6 -22.3 -14.2 -24.1 -11 -26.6C-7.9 -29.2 -3.9 -32.6 0 -36.1L0 0Z" fill="#1e83dc"></path></g><g transform="translate(0, 0)"><path d="M216.3 0C215 29.6 213.7 59.3 199.9 82.8C186.1 106.3 159.8 123.7 136.5 136.5C113.1 149.3 92.7 157.4 70.4 170C48.2 182.5 24.1 199.4 0 216.3L0 0Z" fill="#20242e"></path><path d="M180.3 0C179.2 24.7 178 49.4 166.6 69C155.1 88.6 133.2 103.1 113.7 113.7C94.3 124.4 77.2 131.2 58.7 141.7C40.1 152.1 20.1 166.2 0 180.3L0 0Z" fill="#293751"></path><path d="M144.2 0C143.3 19.8 142.4 39.5 133.2 55.2C124 70.9 106.5 82.5 91 91C75.4 99.5 61.8 105 46.9 113.3C32.1 121.7 16.1 133 0 144.2L0 0Z" fill="#2e4b76"></path><path d="M108.2 0C107.5 14.8 106.8 29.6 99.9 41.4C93 53.1 79.9 61.8 68.2 68.2C56.6 74.6 46.3 78.7 35.2 85C24.1 91.3 12 99.7 0 108.2L0 0Z" fill="#2f619d"></path><path d="M72.1 0C71.7 9.9 71.2 19.8 66.6 27.6C62 35.4 53.3 41.2 45.5 45.5C37.7 49.8 30.9 52.5 23.5 56.7C16.1 60.8 8 66.5 0 72.1L0 0Z" fill="#2877c7"></path><path d="M36.1 0C35.8 4.9 35.6 9.9 33.3 13.8C31 17.7 26.6 20.6 22.7 22.7C18.9 24.9 15.4 26.2 11.7 28.3C8 30.4 4 33.2 0 36.1L0 0Z" fill="#1e83dc"></path></g></svg>