<svg id="visual" viewBox="0 0 900 600" width="900" height="600" xmlns="http://www.w3.org/2000/svg" xmlns:xlink="http://www.w3.org/1999/xlink" version="1.1"><path d="M0 157L13.7 157C27.3 157 54.7 157 82 140C109.3 123 136.7 89 163.8 75C191 61 218 67 245.2 73C272.3 79 299.7 85 327 93C354.3 101 381.7 111 409 108C436.3 105 463.7 89 491 88C518.3 87 545.7 101 573 114C600.3 127 627.7 139 654.8 137C682 135 709 119 736.2 113C763.3 107 790.7 111 818 109C845.3 107 872.7 99 886.3 95L900 91L900 0L886.3 0C872.7 0 845.3 0 818 0C790.7 0 763.3 0 736.2 0C709 0 682 0 654.8 0C627.7 0 600.3 0 573 0C545.7 0 518.3 0 491 0C463.7 0 436.3 0 409 0C381.7 0 354.3 0 327 0C299.7 0 272.3 0 245.2 0C218 0 191 0 163.8 0C136.7 0 109.3 0 82 0C54.7 0 27.3 0 13.7 0L0 0Z" fill="#ffffff"></path><path d="M0 199L13.7 207C27.3 215 54.7 231 82 220C109.3 209 136.7 171 163.8 158C191 145 218 157 245.2 166C272.3 175 299.7 181 327 185C354.3 189 381.7 191 409 187C436.3 183 463.7 173 491 169C518.3 165 545.7 167 573 174C600.3 181 627.7 193 654.8 190C682 187 709 169 736.2 165C763.3 161 790.7 171 818 170C845.3 169 872.7 157 886.3 151L900 145L900 89L886.3 93C872.7 97 845.3 105 818 107C790.7 109 763.3 105 736.2 111C709 117 682 133 654.8 135C627.7 137 600.3 125 573 112C545.7 99 518.3 85 491 86C463.7 87 436.3 103 409 106C381.7 109 354.3 99 327 91C299.7 83 272.3 77 245.2 71C218 65 191 59 163.8 73C136.7 87 109.3 121 82 138C54.7 155 27.3 155 13.7 155L0 155Z" fill="#ffffff"></path><path d="M0 307L13.7 305C27.3 303 54.7 299 82 285C109.3 271 136.7 247 163.8 234C191 221 218 219 245.2 231C272.3 243 299.7 269 327 279C354.3 289 381.7 283 409 278C436.3 273 463.7 269 491 264C518.3 259 545.7 253 573 258C600.3 263 627.7 279 654.8 275C682 271 709 247 736.2 238C763.3 229 790.7 235 818 230C845.3 225 872.7 209 886.3 201L900 193L900 143L886.3 149C872.7 155 845.3 167 818 168C790.7 169 763.3 159 736.2 163C709 167 682 185 654.8 188C627.7 191 600.3 179 573 172C545.7 165 518.3 163 491 167C463.7 171 436.3 181 409 185C381.7 189 354.3 187 327 183C299.7 179 272.3 173 245.2 164C218 155 191 143 163.8 156C136.7 169 109.3 207 82 218C54.7 229 27.3 213 13.7 205L0 197Z" fill="#ffffff"></path><path d="M0 493L13.7 486C27.3 479 54.7 465 82 453C109.3 441 136.7 431 163.8 423C191 415 218 409 245.2 412C272.3 415 299.7 427 327 433C354.3 439 381.7 439 409 450C436.3 461 463.7 483 491 468C518.3 453 545.7 401 573 386C600.3 371 627.7 393 654.8 417C682 441 709 467 736.2 457C763.3 447 790.7 401 818 392C845.3 383 872.7 411 886.3 425L900 439L900 191L886.3 199C872.7 207 845.3 223 818 228C790.7 233 763.3 227 736.2 236C709 245 682 269 654.8 273C627.7 277 600.3 261 573 256C545.7 251 518.3 257 491 262C463.7 267 436.3 271 409 276C381.7 281 354.3 287 327 277C299.7 267 272.3 241 245.2 229C218 217 191 219 163.8 232C136.7 245 109.3 269 82 283C54.7 297 27.3 301 13.7 303L0 305Z" fill="#f6f6f6"></path><path d="M0 601L13.7 601C27.3 601 54.7 601 82 601C109.3 601 136.7 601 163.8 601C191 601 218 601 245.2 601C272.3 601 299.7 601 327 601C354.3 601 381.7 601 409 601C436.3 601 463.7 601 491 601C518.3 601 545.7 601 573 601C600.3 601 627.7 601 654.8 601C682 601 709 601 736.2 601C763.3 601 790.7 601 818 601C845.3 601 872.7 601 886.3 601L900 601L900 437L886.3 423C872.7 409 845.3 381 818 390C790.7 399 763.3 445 736.2 455C709 465 682 439 654.8 415C627.7 391 600.3 369 573 384C545.7 399 518.3 451 491 466C463.7 481 436.3 459 409 448C381.7 437 354.3 437 327 431C299.7 425 272.3 413 245.2 410C218 407 191 413 163.8 421C136.7 429 109.3 439 82 451C54.7 463 27.3 477 13.7 484L0 491Z" fill="#eeeeee"></path></svg>