<svg id="visual" viewBox="0 0 900 600" width="900" height="600" xmlns="http://www.w3.org/2000/svg" xmlns:xlink="http://www.w3.org/1999/xlink" version="1.1"><path d="M0 67L75 65C150 63 300 59 450 55C600 51 750 47 825 45L900 43L900 0L825 0C750 0 600 0 450 0C300 0 150 0 75 0L0 0Z" fill="#3b3d43"></path><path d="M0 193L75 177C150 161 300 129 450 115C600 101 750 105 825 107L900 109L900 41L825 43C750 45 600 49 450 53C300 57 150 61 75 63L0 65Z" fill="#2a2b30"></path><path d="M0 307L75 301C150 295 300 283 450 276C600 269 750 267 825 266L900 265L900 107L825 105C750 103 600 99 450 113C300 127 150 159 75 175L0 191Z" fill="#1a1b1e"></path><path d="M0 427L75 443C150 459 300 491 450 480C600 469 750 415 825 388L900 361L900 263L825 264C750 265 600 267 450 274C300 281 150 293 75 299L0 305Z" fill="#17191b"></path><path d="M0 601L75 601C150 601 300 601 450 601C600 601 750 601 825 601L900 601L900 359L825 386C750 413 600 467 450 478C300 489 150 457 75 441L0 425Z" fill="#151618"></path></svg>